<?xml version="1.0" standalone="no"?>
<!DOCTYPE svg PUBLIC "-//W3C//DTD SVG 20010904//EN"
 "http://www.w3.org/TR/2001/REC-SVG-20010904/DTD/svg10.dtd">
<svg version="1.0" xmlns="http://www.w3.org/2000/svg"
 width="120.000000pt" height="120.000000pt" viewBox="0 0 120.000000 120.000000"
 preserveAspectRatio="xMidYMid meet">
<metadata>
Created by potrace 1.15, written by Peter Selinger 2001-2017
</metadata>
<g transform="translate(0.000000,120.000000) scale(0.100000,-0.100000)"
fill="#000000" stroke="none">
<path d="M186 771 l-169 -169 21 -29 c30 -41 302 -310 302 -298 0 5 -71 81
-157 167 l-158 158 165 163 165 162 -160 -162 -160 -163 158 -158 c86 -86 157
-163 157 -169 0 -7 4 -14 9 -17 4 -3 9 33 10 81 l2 86 -88 89 -88 88 88 88 88
89 -2 81 c-1 45 -5 82 -8 82 -3 0 -82 -76 -175 -169z"/>
<path d="M831 858 l-2 -81 88 -89 88 -88 -88 -88 -88 -89 2 -87 2 -88 176 176
176 176 -170 170 c-93 93 -173 170 -176 170 -3 0 -7 -37 -8 -82z"/>
</g>
</svg>
