<?xml version="1.0" standalone="no"?>
<!DOCTYPE svg PUBLIC "-//W3C//DTD SVG 20010904//EN"
 "http://www.w3.org/TR/2001/REC-SVG-20010904/DTD/svg10.dtd">
<svg version="1.0" xmlns="http://www.w3.org/2000/svg"
 width="1068.000000pt" height="228.000000pt" viewBox="0 0 1068.000000 228.000000"
 preserveAspectRatio="xMidYMid meet">
<metadata>
Created by potrace 1.15, written by Peter Selinger 2001-2017
</metadata>
<g transform="translate(0.000000,228.000000) scale(0.100000,-0.100000)"
fill="#000000" stroke="none">
<path d="M2657 2064 c-4 -4 -7 -370 -7 -814 0 -613 3 -809 12 -818 16 -16 130
-16 146 0 9 9 12 110 12 393 0 247 4 402 11 439 33 163 170 266 338 254 100
-7 170 -51 214 -133 21 -39 22 -51 25 -489 2 -304 6 -454 14 -463 11 -13 112
-18 142 -7 14 5 16 56 16 465 0 438 -1 463 -21 521 -50 149 -151 232 -316 259
-140 23 -281 -20 -373 -112 l-50 -50 -2 278 -3 278 -75 3 c-42 1 -79 0 -83 -4z"/>
<path d="M4104 2057 c-2 -7 -3 -62 -2 -123 l3 -109 75 0 75 0 0 120 0 120 -73
3 c-54 2 -74 -1 -78 -11z"/>
<path d="M1376 1914 c-11 -28 -6 -130 6 -142 9 -9 68 -12 205 -12 l193 0 0
-665 0 -665 23 -5 c13 -4 50 -5 82 -3 l60 3 3 668 2 667 194 0 c154 0 196 3
205 14 7 9 11 41 9 83 l-3 68 -486 3 c-437 2 -487 1 -493 -14z"/>
<path d="M6105 1906 l-25 -25 0 -695 c0 -495 3 -702 11 -720 21 -44 49 -48
311 -44 264 5 294 10 413 70 84 43 183 145 229 236 59 116 66 164 66 448 0
217 -3 261 -20 328 -25 100 -61 165 -133 242 -68 73 -133 117 -225 153 -65 24
-77 25 -334 29 l-267 4 -26 -26z m605 -182 c78 -37 146 -104 186 -182 l29 -57
0 -305 0 -305 -26 -56 c-49 -103 -140 -181 -248 -213 -40 -12 -99 -16 -223
-16 l-168 0 0 586 0 585 193 -3 c191 -3 192 -3 257 -34z"/>
<path d="M5193 1665 c-80 -22 -131 -52 -184 -106 l-48 -49 -3 67 -3 68 -77 3
c-74 3 -78 2 -83 -20 -3 -13 -4 -286 -3 -608 l3 -585 80 0 80 0 5 415 c5 400
6 417 28 471 29 73 82 133 146 167 46 24 62 27 151 27 112 0 140 -10 199 -71
68 -70 69 -78 74 -571 l3 -443 80 0 80 0 -3 483 -3 482 -29 63 c-38 81 -123
162 -203 192 -75 29 -216 36 -290 15z"/>
<path d="M7756 1664 c-182 -44 -326 -200 -355 -384 -14 -84 -14 -376 0 -460
32 -198 192 -358 389 -389 103 -17 395 -14 409 3 7 9 11 40 9 78 l-3 63 -205
5 c-181 5 -210 8 -251 27 -115 52 -178 149 -187 288 l-5 85 361 0 361 0 28 24
c28 24 28 25 27 148 -1 189 -39 292 -144 392 -67 64 -139 103 -229 122 -81 17
-129 17 -205 -2z m239 -178 c103 -51 161 -141 172 -270 l6 -76 -308 0 -308 0
6 74 c6 88 31 148 83 205 89 99 228 126 349 67z"/>
<path d="M3846 1634 c-3 -9 -6 -37 -6 -64 0 -82 -4 -80 136 -80 l124 0 0 -509
c0 -486 1 -510 19 -532 19 -23 24 -24 198 -27 210 -4 206 -6 201 90 l-3 63
-122 3 -123 3 0 500 c0 527 -2 546 -45 563 -9 3 -97 6 -195 6 -153 0 -179 -2
-184 -16z"/>
<path d="M8547 1643 c-4 -3 -7 -14 -7 -24 0 -35 410 -1174 427 -1186 27 -20
149 -17 171 5 22 22 424 1156 420 1185 -3 20 -10 22 -74 25 -49 2 -74 -1 -81
-10 -5 -7 -83 -229 -173 -493 -90 -264 -166 -486 -170 -493 -3 -7 -84 212
-179 487 -104 300 -179 502 -188 505 -21 8 -138 7 -146 -1z"/>
</g>
</svg>
